<svg xmlns="http://www.w3.org/2000/svg" version="1.1" xmlns:xlink="http://www.w3.org/1999/xlink" xmlns:svgjs="http://svgjs.com/svgjs" width="1440" height="560" preserveAspectRatio="none" viewBox="0 0 1440 560"><g mask="url(&quot;#SvgjsMask1009&quot;)" fill="none"><rect width="1440" height="560" x="0" y="0" fill="rgba(242, 242, 242, 1)"></rect><path d="M 0,45 C 57.6,80 172.8,227.8 288,220 C 403.2,212.2 460.8,12.6 576,6 C 691.2,-0.6 748.8,160.6 864,187 C 979.2,213.4 1036.8,145.2 1152,138 C 1267.2,130.8 1382.4,148.4 1440,151L1440 560L0 560z" fill="rgba(107, 87, 220, 1)"></path><path d="M 0,466 C 96,447.4 288,369.2 480,373 C 672,376.8 768,491 960,485 C 1152,479 1344,371.4 1440,343L1440 560L0 560z" fill="rgba(39, 27, 91, 1)"></path></g><defs><mask id="SvgjsMask1009"><rect width="1440" height="560" fill="#ffffff"></rect></mask></defs></svg>