<svg xmlns="http://www.w3.org/2000/svg" version="1.1" xmlns:xlink="http://www.w3.org/1999/xlink" xmlns:svgjs="http://svgjs.com/svgjs" width="1440" height="560" preserveAspectRatio="none" viewBox="0 0 1440 560"><g mask="url(&quot;#SvgjsMask1002&quot;)" fill="none"><rect width="1440" height="560" x="0" y="0" fill="rgba(39, 27, 91, 1)"></rect><path d="M -828.0678146365647,462 C -732.07,402.8 -540.07,186.6 -348.0678146365647,166 C -156.07,145.4 -60.07,338 131.93218536343528,359 C 323.93,380 419.93,286.6 611.9321853634353,271 C 803.93,255.4 926.32,312.8 1091.9321853634353,281 C 1257.55,249.2 1370.39,145.8 1440,112" stroke="rgba(143, 97, 242, 1)" stroke-width="2"></path><path d="M -773.8063546386364,100 C -677.81,170.6 -485.81,457.6 -293.80635463863644,453 C -101.81,448.4 -5.81,82.2 186.19364536136356,77 C 378.19,71.8 474.19,410.4 666.1936453613636,427 C 858.19,443.6 991.43,155.2 1146.1936453613635,160 C 1300.95,164.8 1381.24,392.8 1440,451" stroke="rgba(143, 97, 242, 1)" stroke-width="2"></path><path d="M -331.8980468295741,360 C -235.9,301.6 -43.9,45.8 148.1019531704259,68 C 340.1,90.2 436.1,434 628.1019531704259,471 C 820.1,508 916.1,247.6 1108.101953170426,253 C 1300.1,258.4 1521.72,533.4 1588.101953170426,498 C 1654.48,462.6 1469.62,160.4 1440,76" stroke="rgba(143, 97, 242, 1)" stroke-width="2"></path><path d="M -505.8087841899652,289 C -409.81,251.6 -217.81,77.2 -25.808784189965213,102 C 166.19,126.8 262.19,415.2 454.1912158100348,413 C 646.19,410.8 742.19,73.2 934.1912158100348,91 C 1126.19,108.8 1313.03,471 1414.1912158100347,502 C 1515.35,533 1434.84,297.2 1440,246" stroke="rgba(143, 97, 242, 1)" stroke-width="2"></path></g><defs><mask id="SvgjsMask1002"><rect width="1440" height="560" fill="#ffffff"></rect></mask></defs></svg>